<svg xmlns="http://www.w3.org/2000/svg" viewBox="0 0 1200 360" fill="none">
  <defs>
    <linearGradient id="bg" x1="0" y1="0" x2="1" y2="1"><stop stop-color="#25386b"/><stop offset="1" stop-color="#111a30"/></linearGradient>
    <linearGradient id="card" x1="0" y1="0" x2="1" y2="1"><stop stop-color="#9b8af3"/><stop offset="1" stop-color="#4fd1b3"/></linearGradient>
  </defs>
  <path fill="url(#bg)" d="M0 0h1200v360H0z"/>
  <circle cx="931" cy="160" r="220" fill="#7c6de2" fill-opacity=".18"/>
  <g transform="rotate(-5 902 181)">
    <rect x="760" y="44" width="302" height="271" rx="21" fill="#111c32" fill-opacity=".8" stroke="#dce7ff" stroke-opacity=".48" stroke-width="2"/>
    <path fill="#fff" fill-opacity=".12" d="M761 66a22 22 0 0 1 22-22h256a22 22 0 0 1 22 22v43H761z"/>
    <circle cx="798" cy="78" r="7" fill="#ff718c"/>
    <circle cx="823" cy="78" r="7" fill="#ffd36d"/>
    <circle cx="848" cy="78" r="7" fill="#61d9ab"/>
    <path stroke="#dce7ff" stroke-opacity=".2" stroke-width="2" d="M785 138h251M785 210h251M785 282h251M849 117v176m83-176v176m83-176v176"/>
    <rect x="865" y="147" width="52" height="49" rx="10" fill="url(#card)" fill-opacity=".9"/>
    <path fill="#effff8" d="M886 157c-6 0-10 5-10 10 0 8 10 19 10 19s10-11 10-19c0-5-4-10-10-10zm0 14a4 4 0 1 1 0-8 4 4 0 0 1 0 8z"/>
    <rect x="948" y="219" width="52" height="48" rx="10" fill="#ff718c" fill-opacity=".8"/>
    <path stroke="#fff" stroke-linecap="round" stroke-width="5" d="M961 233h26m-26 12h18"/>
    <rect x="783" y="221" width="51" height="47" rx="10" fill="#57d6ab" fill-opacity=".8"/>
    <path stroke="#fff" stroke-linecap="round" stroke-width="4" d="M795 244h27m-13-13v26"/>
  </g>
  <circle cx="1082" cy="102" r="39" fill="#fff" fill-opacity=".09"/>
  <circle cx="1082" cy="102" r="26" stroke="#c9fff0" stroke-opacity=".78" stroke-width="3"/>
  <path stroke="#c9fff0" stroke-opacity=".78" stroke-width="3" d="m1071 102 8 8 15-17"/>
</svg>
